<?xml version="1.0" encoding="iso-8859-1"?>
<!-- Uploaded to: SVG Repo, www.svgrepo.com, Generator: SVG Repo Mixer Tools -->
<!DOCTYPE svg PUBLIC "-//W3C//DTD SVG 1.1//EN" "http://www.w3.org/Graphics/SVG/1.1/DTD/svg11.dtd">
<svg fill="#000000" height="800px" width="800px" version="1.1" id="Capa_1" xmlns="http://www.w3.org/2000/svg" xmlns:xlink="http://www.w3.org/1999/xlink" 
	 viewBox="0 0 495.671 495.671" xml:space="preserve">
<path d="M447.62,261.282h-44.603V234.3c0-33.246-26.437-60.418-59.391-61.638v-59.956c0-17.493-14.23-31.725-31.723-31.725H255.02
	v-7.873C255.02,32.796,222.224,0,181.912,0c-40.313,0-73.109,32.796-73.109,73.108v7.874H51.92
	c-17.492,0-31.723,14.231-31.723,31.724v351.242c0,17.492,14.231,31.723,31.723,31.723h165.105c2.542,0,4.873-0.904,6.689-2.407
	c3.458,1.542,7.282,2.407,11.307,2.407H447.62c15.359,0,27.854-12.496,27.854-27.855V289.138
	C475.474,273.778,462.979,261.282,447.62,261.282z M382.017,234.3v26.982l-81.393,0.001V234.3c0-22.441,18.256-40.696,40.696-40.696
	C363.76,193.604,382.017,211.859,382.017,234.3z M129.803,73.108c0-28.732,23.376-52.108,52.109-52.108
	c28.732,0,52.108,23.376,52.108,52.108v7.873l-104.217,0.001V73.108z M51.92,101.982h56.884v11.057
	c-18.117,4.675-31.54,21.155-31.54,40.712c0,23.181,18.859,42.039,42.04,42.039c23.181,0,42.041-18.858,42.041-42.039
	c0-19.557-13.423-36.037-31.541-40.712v-11.057l104.217-0.001v11.061c-18.111,4.68-31.529,21.156-31.529,40.709
	c0,23.181,18.859,42.039,42.04,42.039s42.04-18.858,42.04-42.039c0-19.561-13.429-36.043-31.551-40.715v-11.055h56.884
	c5.913,0,10.723,4.811,10.723,10.725v62.801c-24.908,7.938-43.003,31.288-43.003,58.793v26.983h-44.603
	c-15.359,0-27.855,12.495-27.855,27.854v107.111H41.197V112.706C41.197,106.793,46.007,101.982,51.92,101.982z M119.304,159.734
	c5.799,0,10.5-4.701,10.5-10.5v-13.688c6.29,3.642,10.541,10.429,10.541,18.204c0,11.601-9.439,21.039-21.041,21.039
	c-11.602,0-21.04-9.438-21.04-21.039c0-7.775,4.251-14.563,10.54-18.204v13.688C108.804,155.033,113.505,159.734,119.304,159.734z
	 M244.52,159.733c5.799,0,10.5-4.701,10.5-10.5V135.54c6.295,3.641,10.551,10.432,10.551,18.211c0,11.601-9.439,21.039-21.04,21.039
	c-11.602,0-21.04-9.438-21.04-21.039c0-7.771,4.246-14.555,10.529-18.197v13.68C234.02,155.032,238.721,159.733,244.52,159.733z
	 M41.197,463.948v-46.699h165.969v50.566c0,2.365,0.298,4.661,0.856,6.855H51.92C46.007,474.671,41.197,469.86,41.197,463.948z
	 M454.474,467.815c0,3.78-3.075,6.855-6.854,6.855H235.021c-3.78,0-6.855-3.075-6.855-6.855V289.138
	c0-3.779,3.075-6.854,6.855-6.854h44.603v23.173c0,5.799,4.701,10.5,10.5,10.5c5.799,0,10.5-4.701,10.5-10.5v-23.173l81.393-0.001
	v23.174c0,5.799,4.701,10.5,10.5,10.5c5.799,0,10.5-4.701,10.5-10.5v-23.174h44.603c3.78,0,6.854,3.075,6.854,6.855V467.815z"/>
</svg>