<?xml version="1.0" encoding="iso-8859-1"?>
<!-- Uploaded to: SVG Repo, www.svgrepo.com, Generator: SVG Repo Mixer Tools -->
<svg fill="#000000" version="1.1" id="Layer_1" xmlns="http://www.w3.org/2000/svg" xmlns:xlink="http://www.w3.org/1999/xlink" 
	 viewBox="0 0 511.999 511.999" xml:space="preserve">
<g>
	<g>
		<polygon points="68.204,101.64 60.54,109.303 52.796,101.561 41.881,112.476 60.54,131.134 79.119,112.556 		"/>
	</g>
</g>
<g>
	<g>
		<polygon points="459.202,246.765 451.54,254.428 443.796,246.685 432.88,257.601 451.54,276.26 470.118,257.68 		"/>
	</g>
</g>
<g>
	<g>
		<path d="M379.395,284.339c-13.758-21.688-32.846-39.404-55.403-51.483v-18.378v-7.719c0-16.621,6.301-36.743,12.972-58.046
			c7.598-24.263,15.456-49.351,15.456-73.395c0-14.487-6.516-27.311-17.051-36.184V0h-15.437v30.136
			c-6.293-2.373-13.228-3.681-20.556-3.681c-19.176,0-36.007,9.584-45.325,23.912c-9.319-14.328-26.15-23.912-45.326-23.912
			c-7.327,0-14.262,1.308-20.555,3.681V0h-15.437v39.134c-10.535,8.873-17.051,21.697-17.051,36.184
			c0,24.267,7.909,49.553,15.556,74.006c6.619,21.162,12.87,41.151,12.87,57.434v7.719v18.378
			c-22.557,12.079-41.643,29.795-55.401,51.482c-15.037,23.704-22.984,51.138-22.984,79.335v148.327h296.655V363.673
			C402.379,335.476,394.431,308.042,379.395,284.339z M171.118,75.319c0-18.744,16.519-33.426,37.607-33.426
			c20.736,0,37.607,15.374,37.607,34.273l0.003,7.719h15.437v-7.719c0-18.898,16.871-34.273,37.606-34.273
			c21.088,0,37.607,14.683,37.607,33.426c0,21.683-7.498,45.626-14.75,68.781c-6.096,19.463-11.898,37.992-13.338,54.941h-109.7
			c-1.448-16.665-7.192-35.033-13.227-54.324C178.668,121.37,171.118,97.228,171.118,75.319z M199.546,225.135v-10.657h109.01
			v18.214h-108.97l0.028-7.59L199.546,225.135z M188.362,248.129h131.377c35.385,20.078,59.139,54.561,65.489,94.115
			c-7.848,1.236-12.959,3.921-17.603,6.368c-5.604,2.953-10.03,5.285-19.839,5.285s-14.235-2.332-19.839-5.285
			c-6.284-3.312-13.407-7.065-27.035-7.065c-13.626,0-20.748,3.753-27.033,7.065c-5.602,2.953-10.027,5.285-19.835,5.285
			s-14.233-2.332-19.836-5.285c-6.284-3.312-13.407-7.065-27.033-7.065c-13.626,0-20.748,3.753-27.032,7.065
			c-5.603,2.953-10.028,5.285-19.835,5.285c-9.807,0-14.232-2.332-19.835-5.285c-4.643-2.447-9.753-5.132-17.599-6.368
			C129.223,302.692,152.98,268.207,188.362,248.129z M386.939,496.562H121.16v-60.19c4.923,0.882,8.239,2.626,12.116,4.669
			c6.283,3.312,13.406,7.065,27.031,7.065s20.748-3.753,27.032-7.065c5.603-2.953,10.028-5.285,19.835-5.285
			c9.808,0,14.234,2.332,19.836,5.285c6.284,3.312,13.406,7.065,27.032,7.065s20.748-3.753,27.032-7.065
			c5.602-2.953,10.027-5.285,19.835-5.285c9.809,0,14.235,2.332,19.839,5.285c6.284,3.312,13.407,7.065,27.036,7.065
			c13.629,0,20.75-3.753,27.035-7.065c3.879-2.044,7.196-3.788,12.12-4.67V496.562z M386.94,420.78
			c-8.831,1.095-14.343,3.985-19.317,6.605c-5.604,2.953-10.03,5.285-19.839,5.285s-14.235-2.332-19.839-5.285
			c-6.284-3.312-13.407-7.065-27.035-7.065c-13.626,0-20.748,3.753-27.033,7.065c-5.602,2.953-10.027,5.285-19.835,5.285
			s-14.233-2.332-19.836-5.285c-6.284-3.312-13.407-7.065-27.033-7.065c-13.626,0-20.748,3.753-27.032,7.065
			c-5.603,2.953-10.028,5.285-19.835,5.285c-9.807,0-14.232-2.332-19.835-5.285c-4.972-2.621-10.483-5.51-19.313-6.605v-57.107
			c0-2.026,0.062-4.039,0.15-6.048c4.841,0.89,8.128,2.62,11.966,4.642c6.283,3.312,13.406,7.065,27.031,7.065
			s20.748-3.753,27.032-7.065c5.603-2.953,10.028-5.285,19.835-5.285c9.808,0,14.234,2.332,19.836,5.285
			c6.284,3.312,13.406,7.065,27.032,7.065s20.748-3.753,27.032-7.065c5.602-2.953,10.027-5.285,19.835-5.285
			c9.809,0,14.235,2.332,19.839,5.285c6.284,3.312,13.407,7.065,27.036,7.065c13.629,0,20.75-3.753,27.035-7.065
			c3.839-2.023,7.127-3.753,11.97-4.643c0.091,2.009,0.152,4.023,0.152,6.049V420.78z"/>
	</g>
</g>
<g>
	<g>
		<rect x="215.244" y="174.717" width="14.938" height="15.437"/>
	</g>
</g>
<g>
	<g>
		<rect x="246.581" y="174.717" width="14.938" height="15.437"/>
	</g>
</g>
<g>
	<g>
		<rect x="277.919" y="174.717" width="14.939" height="15.437"/>
	</g>
</g>
<g>
	<g>
		<rect x="136.885" y="473.836" width="14.938" height="15.437"/>
	</g>
</g>
<g>
	<g>
		<rect x="168.233" y="473.836" width="14.938" height="15.437"/>
	</g>
</g>
<g>
	<g>
		<rect x="199.57" y="473.836" width="14.938" height="15.437"/>
	</g>
</g>
<g>
	<g>
		<rect x="230.908" y="473.836" width="14.938" height="15.437"/>
	</g>
</g>
<g>
	<g>
		<rect x="262.255" y="473.836" width="14.939" height="15.437"/>
	</g>
</g>
<g>
	<g>
		<rect x="293.592" y="473.836" width="14.939" height="15.437"/>
	</g>
</g>
<g>
	<g>
		<rect x="324.93" y="473.836" width="14.938" height="15.437"/>
	</g>
</g>
<g>
	<g>
		<rect x="356.267" y="473.836" width="14.939" height="15.437"/>
	</g>
</g>
</svg>