<?xml version="1.0" encoding="UTF-8" standalone="no"?>
<!-- Uploaded to: SVG Repo, www.svgrepo.com, Generator: SVG Repo Mixer Tools -->
<svg width="800px" height="800px" viewBox="0 0 64 64" version="1.1" xmlns="http://www.w3.org/2000/svg" xmlns:xlink="http://www.w3.org/1999/xlink">
    
    <title>clo-converse</title>
    <desc>Created with Sketch.</desc>
    <defs>

</defs>
    <g id="64px-Line" stroke="none" stroke-width="1" fill="none" fill-rule="evenodd">
        <g id="clo-converse">

</g>
        <path d="M44.35,36.615 C39.936,35.801 35.373,34.958 32.707,32.293 C29.8,29.386 28,22.61 28,18 C28,14.411 25.303,12 21.288,12 L5,12 C4.447,12 4,12.448 4,13 L4,51 C4,52.654 5.346,54 7,54 L55,54 C56.654,54 58,52.654 58,51 L58,47 C58,39.134 51.061,37.853 44.35,36.615 L44.35,36.615 Z M55.942,46 L44,46 L44,38.584 C50.075,39.705 55.362,40.69 55.942,46 L55.942,46 Z M20.005,14 L20.005,14.006 C20.011,14.555 20.457,14.996 21.005,14.996 L21.016,14.996 C21.55,14.99 21.973,14.564 21.995,14.037 C24.042,14.24 26,15.355 26,18 C26,23.12 27.979,30.395 31.293,33.707 C33.963,36.377 37.941,37.414 42,38.206 L42,40.99 C41.476,40.997 41.028,41.403 41.004,41.937 C40.98,42.489 41.407,42.956 41.959,42.98 C41.975,42.981 41.985,42.981 42,42.981 L42,46 L6,46 L6,14 L20.005,14 L20.005,14 Z M55,52 L7,52 C6.448,52 6,51.551 6,51 L6,48 L56,48 L56,51 C56,51.551 55.552,52 55,52 L55,52 Z" id="Shape" fill="#000000">

</path>
        <path d="M26.27,36.683 C26.418,36.843 26.57,36.998 26.726,37.15 C26.92,37.34 27.172,37.435 27.424,37.435 C27.684,37.435 27.944,37.334 28.14,37.134 C28.526,36.738 28.518,36.106 28.122,35.72 C27.989,35.59 27.859,35.456 27.732,35.321 C27.445,35.012 27.168,34.681 26.906,34.338 C26.571,33.899 25.943,33.813 25.505,34.148 C25.066,34.482 24.981,35.11 25.315,35.549 C25.615,35.942 25.936,36.324 26.27,36.683 L26.27,36.683 Z" id="Shape" fill="#000000">

</path>
        <path d="M22.409,30.013 C22.648,30.677 22.91,31.323 23.187,31.931 C23.355,32.3 23.718,32.517 24.098,32.517 C24.236,32.517 24.377,32.488 24.511,32.427 C25.014,32.198 25.236,31.605 25.007,31.103 C24.752,30.543 24.511,29.948 24.289,29.334 C24.102,28.815 23.527,28.547 23.01,28.732 C22.491,28.92 22.222,29.493 22.409,30.013 L22.409,30.013 Z" id="Shape" fill="#000000">

</path>
        <path d="M35.842,42.047 C36.496,42.219 37.173,42.372 37.854,42.5 C37.916,42.512 37.978,42.517 38.04,42.517 C38.512,42.517 38.932,42.182 39.021,41.702 C39.124,41.159 38.766,40.637 38.223,40.535 C37.589,40.416 36.959,40.275 36.352,40.115 C35.82,39.973 35.272,40.292 35.13,40.827 C34.989,41.359 35.308,41.906 35.842,42.047 L35.842,42.047 Z" id="Shape" fill="#000000">

</path>
        <path d="M30.074,39.701 C30.658,40.044 31.282,40.368 31.93,40.665 C32.065,40.727 32.206,40.756 32.345,40.756 C32.724,40.756 33.087,40.54 33.255,40.173 C33.485,39.671 33.265,39.077 32.762,38.847 C32.176,38.578 31.613,38.286 31.087,37.977 C30.61,37.698 29.998,37.856 29.718,38.333 C29.439,38.809 29.599,39.421 30.074,39.701 L30.074,39.701 Z" id="Shape" fill="#000000">

</path>
        <path d="M20.866,24.075 C20.984,24.738 21.118,25.405 21.27,26.072 C21.375,26.536 21.788,26.85 22.244,26.85 C22.317,26.85 22.392,26.842 22.468,26.825 C23.006,26.702 23.343,26.166 23.22,25.628 C23.075,24.992 22.948,24.356 22.835,23.725 C22.738,23.182 22.226,22.818 21.675,22.916 C21.132,23.012 20.77,23.531 20.866,24.075 L20.866,24.075 Z" id="Shape" fill="#000000">

</path>
        <path d="M21.312,20.956 C21.344,20.956 21.377,20.955 21.411,20.951 C21.961,20.897 22.362,20.408 22.308,19.858 C22.242,19.182 22.19,18.528 22.149,17.905 C22.112,17.354 21.628,16.94 21.085,16.973 C20.534,17.01 20.117,17.486 20.153,18.037 C20.196,18.681 20.25,19.356 20.318,20.054 C20.368,20.57 20.803,20.956 21.312,20.956 L21.312,20.956 Z" id="Shape" fill="#000000">

</path>
        <path d="M11,42 C12.654,42 14,40.654 14,39 C14,37.346 12.654,36 11,36 C9.346,36 8,37.346 8,39 C8,40.654 9.346,42 11,42 L11,42 Z M11,38 C11.552,38 12,38.449 12,39 C12,39.551 11.552,40 11,40 C10.448,40 10,39.551 10,39 C10,38.449 10.448,38 11,38 L11,38 Z" id="Shape" fill="#000000">

</path>
        <path d="M19,42 C20.654,42 22,40.654 22,39 C22,37.346 20.654,36 19,36 C17.346,36 16,37.346 16,39 C16,40.654 17.346,42 19,42 L19,42 Z M19,38 C19.552,38 20,38.449 20,39 C20,39.551 19.552,40 19,40 C18.448,40 18,39.551 18,39 C18,38.449 18.448,38 19,38 L19,38 Z" id="Shape" fill="#000000">

</path>
    </g>
</svg>