<?xml version="1.0" encoding="UTF-8" standalone="no"?>
<!-- Uploaded to: SVG Repo, www.svgrepo.com, Generator: SVG Repo Mixer Tools -->
<svg width="800px" height="800px" viewBox="-11.5 0 64 64" version="1.1" xmlns="http://www.w3.org/2000/svg" xmlns:xlink="http://www.w3.org/1999/xlink" xmlns:sketch="http://www.bohemiancoding.com/sketch/ns">
    
    <title>Watch</title>
    <desc>Created with Sketch.</desc>
    <defs>
</defs>
    <g id="Page-1" stroke="none" stroke-width="1" fill="none" fill-rule="evenodd" sketch:type="MSPage">
        <g id="Watch" sketch:type="MSLayerGroup" transform="translate(2.000000, 2.000000)" stroke="#6B6C6E" stroke-width="2">
            <path d="M31.4,44.1 L29.9,59 C29.9,60.1 29,61 27.9,61 L10,61 C8.9,61 8,60.1 8,59 L6.5,44.2" id="Shape" sketch:type="MSShapeGroup">
</path>
            <path d="M6.5,15.9 L8,2 C8,0.9 8.9,-0.1 10,-0.1 L27.9,-0.1 C29,-0.1 29.9,0.8 29.9,2 L31.3,15.8" id="Shape" sketch:type="MSShapeGroup">
</path>
            <path d="M18.9,11 C29.4,11 37.9,19.6 37.9,30.1 C37.9,40.6 29.4,49.1 18.9,49.1 C8.4,49.1 -0.1,40.6 -0.1,30.1 C-0.1,19.6 8.4,11 18.9,11 L18.9,11 Z" id="Shape" sketch:type="MSShapeGroup">
</path>
            <circle id="Oval" sketch:type="MSShapeGroup" cx="19" cy="30" r="14">
</circle>
            <path d="M18.9,19.2 L18.9,30.1" id="Shape" sketch:type="MSShapeGroup">
</path>
        </g>
    </g>
</svg>